<?xml version="1.0" encoding="UTF-8"?>
<svg id="_레이어_2" data-name="레이어 2" xmlns="http://www.w3.org/2000/svg" viewBox="0 0 275.59 66.33">
  <defs>
    <style>
      .cls-1 {
        fill: #4caf50;
      }

      .cls-2 {
        fill: #424242;
      }
    </style>
  </defs>
  <g id="_레이어_2-2" data-name="레이어 2">
    <g>
      <g>
        <polygon class="cls-2" points="42.36 33.99 42.36 14.28 34.13 14.28 34.13 66.27 42.36 66.27 42.36 40.11 50.6 40.11 50.6 33.99 42.36 33.99"/>
        <path class="cls-2" d="M21.89,48c-2.67.21-5.39.34-8.18.39-1.76.04-3.61.06-5.53.07v-9.59h17.77v-5.84H8.18v-8.42h18.57v-6.06H0v35.94h4.73c3.28,0,6.36-.03,9.25-.08,2.89-.06,5.72-.2,8.49-.42s5.58-.54,8.45-.95l-.74-5.9c-2.87.37-5.64.67-8.3.87Z"/>
      </g>
      <g>
        <rect class="cls-2" x="93.4" y="14.16" width="8.18" height="52.17"/>
        <path class="cls-2" d="M78.64,20.09c-2.25-1.52-4.84-2.27-7.75-2.27s-5.43.76-7.69,2.27c-2.25,1.52-4.03,3.67-5.32,6.46-1.29,2.79-1.94,6.07-1.94,9.85s.65,7.12,1.94,9.91c1.29,2.79,3.06,4.94,5.32,6.46,2.25,1.52,4.82,2.27,7.69,2.27s5.49-.76,7.75-2.27c2.25-1.52,4.03-3.67,5.32-6.46,1.29-2.79,1.94-6.09,1.94-9.91s-.65-7.07-1.94-9.85c-1.29-2.79-3.06-4.94-5.32-6.46ZM77.14,42.89c-.59,1.78-1.43,3.12-2.49,4.02-1.07.9-2.32,1.35-3.75,1.35s-2.62-.45-3.69-1.35c-1.07-.9-1.9-2.24-2.49-4.02-.59-1.78-.89-3.94-.89-6.49s.3-4.74.89-6.49c.59-1.74,1.42-3.06,2.49-3.96,1.07-.9,2.3-1.35,3.69-1.35s2.68.45,3.75,1.35c1.07.9,1.9,2.22,2.49,3.96.59,1.74.89,3.9.89,6.49s-.3,4.71-.89,6.49Z"/>
      </g>
      <path class="cls-2" d="M150.52,14.16v18.81h-9.56c-.27-2.37-.81-4.52-1.66-6.43-1.25-2.79-2.99-4.94-5.23-6.46-2.23-1.52-4.77-2.27-7.59-2.27s-5.35.76-7.56,2.27c-2.21,1.52-3.96,3.67-5.23,6.46-1.27,2.79-1.91,6.07-1.91,9.85s.64,7.12,1.91,9.91c1.27,2.79,3.01,4.94,5.23,6.46,2.21,1.52,4.73,2.27,7.56,2.27s5.36-.76,7.59-2.27c2.23-1.52,3.98-3.67,5.23-6.46.96-2.15,1.55-4.62,1.77-7.38h9.45v27.4h8.18V14.16h-8.18ZM132.57,42.89c-.57,1.78-1.37,3.12-2.4,4.02-1.02.9-2.25,1.35-3.69,1.35-1.35,0-2.55-.45-3.6-1.35-1.05-.9-1.86-2.24-2.43-4.02-.57-1.78-.86-3.94-.86-6.49s.29-4.74.86-6.49c.57-1.74,1.38-3.06,2.43-3.96s2.24-1.35,3.6-1.35c1.43,0,2.66.45,3.69,1.35,1.02.9,1.82,2.22,2.4,3.96.57,1.74.86,3.9.86,6.49s-.29,4.71-.86,6.49Z"/>
    </g>
    <polygon class="cls-1" points="197.51 4.57 193.31 0 179.97 12.61 168.91 5.16 165.08 10.9 180.62 20.68 197.51 4.57"/>
    <g>
      <path class="cls-2" d="M187.66,41.34c-.86-1.72-1.49-3.56-1.87-5.5-.39-1.95-.58-3.87-.58-5.78v-1.07h8.73v-6.01h-25.39v6.01h8.85v1.07c0,1.98-.18,3.98-.55,5.98-.37,2-.99,3.93-1.88,5.78-.88,1.85-2.02,3.56-3.41,5.11s-3.09,2.87-5.1,3.96l4.55,5.62c2.29-1.2,4.23-2.74,5.81-4.63,1.58-1.89,2.87-4.01,3.87-6.35.25-.59.49-1.19.71-1.79.78,1.95,1.75,3.78,2.95,5.44,1.89,2.6,4.34,4.63,7.38,6.09l4.43-5.56c-2.01-.97-3.71-2.18-5.1-3.62-1.39-1.44-2.52-3.02-3.38-4.74Z"/>
      <rect class="cls-2" x="208.57" y="14.22" width="7.81" height="52"/>
      <polygon class="cls-2" points="197.07 33.93 190.67 33.93 190.67 39.99 197.07 39.99 197.07 63.86 204.69 63.86 204.69 15.06 197.07 15.06 197.07 33.93"/>
    </g>
    <g>
      <path class="cls-2" d="M262.18,32.36c0,.24-.02.49-.03.73l-33.97,1.01,1.05,6.01,32.51-1.47c-.07.65-.14,1.31-.23,1.98-.37,2.92-1,6.12-1.91,9.6l8.12.67c.86-3.78,1.48-7.16,1.84-10.14s.59-5.75.68-8.31c.08-2.56.12-5.1.12-7.61v-6.06h-40.52v6.01h32.47v.06c0,2.43-.04,4.94-.12,7.52Z"/>
      <rect class="cls-2" x="224.06" y="54.03" width="51.53" height="6.12"/>
    </g>
  </g>
</svg>